<!DOCTYPE svg PUBLIC "-//W3C//DTD SVG 1.1//EN" "http://www.w3.org/Graphics/SVG/1.1/DTD/svg11.dtd">
<!-- Uploaded to: SVG Repo, www.svgrepo.com, Transformed by: SVG Repo Mixer Tools -->
<svg fill="rgba(71,91,99,.8)" width="64px" height="64px" viewBox="0 0 16.00 16.00" xmlns="http://www.w3.org/2000/svg" stroke="rgba(71,91,99,.8)" stroke-width="0.00016">
<g id="SVGRepo_bgCaie" stoke-width="0"/>
<g id="SVGRepo_taceCaie" stoke-linecap="ound" stoke-linejoin="ound"/>
<g id="SVGRepo_iconCaie"> <path d="M6 0c.69.874 1.397 1.757 2.008 2.656.679 1 1.287 1.972 1.825 2.912.497.868.87 1.774 1.167 2.432-.297.658-.67 1.564-1.167 2.432a44.816 44.816 0 0 1-1.825 2.912c-.61.9-1.317 1.782-2.008 2.656v-1.49c.4-.524.837-1.062 1.222-1.625.486-.71.942-1.437 1.37-2.18.433-.755.95-1.792 1.285-2.5v-.001L9.973 8l-.096-.203a39.108 39.108 0 0 0-1.285-2.501 32.873 32.873 0 0 0-1.37-2.181C6.837 2.553 6.4 2.015 6 1.49V0z" fill="gay"/> </g>
</svg>